<svg width="18" height="12" viewBox="0 0 18 12" fill="none" xmlns="http://www.w3.org/2000/svg">
<path opacity="0.6" fill-rule="evenodd" clip-rule="evenodd" d="M11.9689 5.08666C12.3333 5.45099 12.3333 6.0417 11.9689 6.40604L7.30421 11.0708C6.93987 11.4351 6.34917 11.4351 5.98483 11.0708C5.62049 10.7064 5.62049 10.1157 5.98483 9.75138L9.98986 5.74635L5.98483 1.74132C5.62049 1.37698 5.62049 0.786272 5.98483 0.421935C6.34917 0.057597 6.93987 0.057597 7.30421 0.421935L11.9689 5.08666Z" fill="#263238"/>
<path opacity="0.4" fill-rule="evenodd" clip-rule="evenodd" d="M6.37128 5.08666C6.73562 5.45099 6.73562 6.0417 6.37128 6.40604L1.70655 11.0708C1.34222 11.4351 0.751509 11.4351 0.387172 11.0708C0.0228343 10.7064 0.0228343 10.1157 0.387172 9.75138L4.3922 5.74635L0.387172 1.74132C0.0228347 1.37698 0.0228347 0.786272 0.387172 0.421935C0.75151 0.057597 1.34222 0.057597 1.70655 0.421935L6.37128 5.08666Z" fill="#263238"/>
<path fill-rule="evenodd" clip-rule="evenodd" d="M17.5666 5.08666C17.9309 5.45099 17.9309 6.0417 17.5666 6.40604L12.9019 11.0708C12.5375 11.4351 11.9468 11.4351 11.5825 11.0708C11.2181 10.7064 11.2181 10.1157 11.5825 9.75138L15.5875 5.74635L11.5825 1.74132C11.2181 1.37698 11.2181 0.786272 11.5825 0.421935C11.9468 0.057597 12.5375 0.057597 12.9019 0.421935L17.5666 5.08666Z" fill="#263238"/>
</svg>
